<?xml version="1.0" encoding="utf-8"?>
<!-- Generator: Adobe Illustrator 19.0.0, SVG Export Plug-In . SVG Version: 6.00 Build 0)  -->
<svg version="1.1"
	 id="Layer_1" xmlns:cc="http://creativecommons.org/ns#" xmlns:dc="http://purl.org/dc/elements/1.1/" xmlns:rdf="http://www.w3.org/1999/02/22-rdf-syntax-ns#"
	 xmlns="http://www.w3.org/2000/svg" xmlns:xlink="http://www.w3.org/1999/xlink" x="0px" y="0px" viewBox="-408 215.2 439.7 131.8"
	 style="enable-background:new -408 215.2 439.7 131.8;" xml:space="preserve">
<style type="text/css">
	.st0{fill:#6F5499;}
	.st1{fill:#3F3E3E;}
	.st2{font-family:'Muli-Light';}
	.st3{font-size:36px;}
</style>
<g transform="translate(-193.41417,-350.53782)">
	<path class="st0" d="M-132.9,584.2c0,0,0.2,0,0.5,0.1c0.3,0.1,0.5,0.1,1.1,0.3c0.6,0.2,1.1,0.2,2,0.5c0.9,0.3,1.7,0.5,2.8,0.9
		c1.1,0.4,2.1,0.8,3.4,1.4s2.3,1,3.7,1.9s2.6,1.5,4.1,2.6c1.5,1.1,2.8,2,4.3,3.4c1.5,1.4,2.8,2.6,4.3,4.2s2.6,3,4,5
		c1.3,1.9,2.5,3.6,3.6,5.8c1.1,2.2,2.1,4.1,2.9,6.6c0.8,2.4,1.5,4.8,2.1,7.3c0.6,2.6,0.8,5,1,7.7c0.2,2.7,0.1,5.2-0.1,8
		c-0.2,2.7-0.7,5.3-1.3,8c-0.6,2.7-1.5,5.3-2.5,7.8c-1,2.5-2.3,5-3.6,7.4c-1.4,2.3-3,4.6-4.7,6.7s-3.6,4.1-5.5,5.9
		c-1.9,1.8-4.1,3.5-6.1,4.9c-2,1.4-4.4,2.9-6.5,4c-2.1,1.1-4.4,2.1-6.5,2.9c-2.1,0.8-4.6,1.6-6.6,2c-2,0.5-4.3,0.9-6.1,1.2
		c-1.9,0.2-4,0.4-5.7,0.5c-1.7,0.1-3.4,0-4.9,0c-1.4,0-3.2-0.2-4.4-0.4c-1.2-0.1-2.5-0.3-3.4-0.5c-0.9-0.2-1.9-0.4-2.6-0.5
		c-0.6-0.1-1.1-0.2-1.4-0.3c-0.3-0.1-0.5-0.1-0.5-0.1c0,0,0,0,0,0.1c0,0,0,0,0,0.1c0,0,0,0,0,0.1c0,0,0,0,0,0c0,0,0,0,0.1,0
		c0,0,0,0,0.1,0c0,0,0,0,0.1,0c0,0,0,0,0.1,0c0,0,0,0,0.1,0c0,0,0.1,0,0.1,0c0,0,0.1,0,0.1,0c0,0,0.1,0,0.1,0c0,0,0.1,0,0.1,0
		c0,0,0.1,0,0.1,0c0,0,0.1,0,0.1,0c0,0,0.1,0,0.1,0c0,0,0.1,0,0.1,0c0,0,0.1,0,0.1,0c0,0,0.1,0,0.1,0c0,0,0.1,0,0.1,0
		c0,0,0.1,0,0.1,0c0,0,0.1,0,0.1,0c0,0,0,0,0.1,0c0,0,0,0,0.1,0c0,0,0,0,0.1,0c0,0,0,0,0.1,0c0,0,0,0,0.1,0c0,0,0,0,0,0c0,0,0,0,0,0
		c0,0,0,0,0,0.1c0,0,0,0,0,0.1c0,0,0,0,0,0.1c0,0,0.1,0.1,0.4,0.2c0.3,0.1,1,0.3,1.6,0.4c0.5,0.1,1.5,0.3,2.3,0.5
		c0.8,0.1,2,0.3,3.1,0.5c1,0.1,2.5,0.3,3.8,0.3c1.3,0.1,2.9,0.1,4.4,0.1c1.5,0,3.6-0.2,5.2-0.3c1.6-0.2,3.9-0.5,5.6-0.9
		c1.8-0.4,4.1-1,5.9-1.5c1.9-0.6,4.2-1.5,6.1-2.3s4.4-2.1,6.3-3.2c1.9-1.1,4.1-2.6,5.9-3.9c1.8-1.3,4-3.2,5.7-4.8s3.5-3.7,5-5.5
		c1.5-1.8,3.1-4.2,4.4-6.3c1.2-2,2.6-4.6,3.5-6.8c0.9-2.2,1.9-4.8,2.5-7c0.7-2.3,1.3-5,1.7-7.4c0.3-2.3,0.6-4.9,0.7-7.2
		c0.1-2.3,0-4.9-0.2-7.2c-0.2-2.2-0.6-4.6-1.1-6.7c-0.4-2.1-1.1-4.4-1.8-6.3c-0.7-1.9-1.5-3.9-2.3-5.7c-0.8-1.8-1.8-3.5-2.7-5
		c-0.9-1.5-1.9-3.1-2.9-4.4c-1-1.3-2-2.6-2.9-3.7c-1-1.1-1.9-2.1-2.8-3c-0.9-0.9-1.7-1.7-2.5-2.4c-0.8-0.7-1.5-1.3-2.1-1.8
		c-0.6-0.5-1.2-0.9-1.6-1.3s-0.8-0.6-1-0.8s-0.4-0.3-0.3-0.3c0,0,0.1,0.1,0.4,0.2c0.3,0.2,0.6,0.4,1.1,0.7c0.5,0.3,1,0.7,1.7,1.2
		s1.4,1.1,2.2,1.8c0.8,0.7,1.7,1.5,2.6,2.4c0.9,0.9,1.9,1.9,2.9,3c1,1.1,2,2.4,3,3.7c1,1.3,2,2.9,2.9,4.4c0.9,1.6,1.9,3.4,2.7,5.1
		c0.8,1.8,1.7,3.9,2.4,5.9c0.6,2,1.3,4.2,1.7,6.4c0.4,2.1,0.8,4.6,1,6.8c0.2,2.3,0.3,5,0.2,7.3c-0.1,2.3-0.4,5-0.7,7.3
		c-0.3,2.4-1.1,5.2-1.8,7.5c-0.7,2.3-1.7,5.1-2.7,7.3c-1,2.2-2.4,4.7-3.6,6.7c-1.3,2.1-3,4.5-4.6,6.3s-3.6,4.1-5.3,5.6
		s-3.9,3.3-5.7,4.7c-1.8,1.4-4.3,3-6.3,4c-1.9,1-4.3,2.2-6.2,3c-1.9,0.8-4.4,1.6-6.2,2.2c-1.9,0.6-4.3,1.1-6.1,1.5
		c-1.8,0.4-4.1,0.6-5.8,0.8s-3.8,0.2-5.3,0.2c-1.5,0-3.5-0.1-4.8-0.2c-1.3-0.1-2.8-0.3-3.8-0.4c-1.1-0.1-2.3-0.4-3.1-0.5
		c-0.8-0.2-1.8-0.4-2.4-0.5s-1-0.2-1.3-0.3c-0.3-0.1-0.4-0.1-0.4-0.1c0,0,0.2,0.1,0.5,0.2c0.4,0.1,1.3,0.4,2,0.6
		c0.7,0.2,2,0.5,3,0.7c1.1,0.2,2.6,0.5,4,0.6c1.4,0.2,3.6,0.4,5.3,0.4c1.7,0,4.2,0.1,6.1-0.1c1.9-0.2,4.7-0.4,6.8-0.8s5-1.1,7.3-1.8
		c2.3-0.7,5.5-2,7.9-3c2.4-1.1,5.5-2.9,7.8-4.3c2.3-1.5,5.2-3.8,7.4-5.7c2.2-1.9,5-4.9,6.9-7.3s4.1-5.6,5.6-8.3
		c1.5-2.7,3.4-6.6,4.3-9.6c1-3,2.1-6.9,2.6-10c0.5-3.2,0.8-7.1,0.9-10.3c0-3.2-0.4-7.4-1-10.5c-0.6-3.1-1.6-6.9-2.6-9.9
		c-1-3-2.8-6.6-4.3-9.3s-3.7-5.7-5.5-8.1c-1.9-2.4-4.5-5.1-6.7-7s-4.9-4-7.2-5.5c-2.3-1.5-5.2-3.1-7.5-4.1c-2.4-1.1-5.1-2-7.4-2.8
		c-2.3-0.7-5.1-1.4-7.2-1.7s-4.6-0.6-6.5-0.8c-2-0.1-4.1-0.1-5.8-0.1c-1.7,0.1-3.6,0.2-4.9,0.4c-1.4,0.2-2.8,0.4-3.9,0.6
		c-1.1,0.2-2.1,0.4-2.9,0.6c-0.7,0.2-1.4,0.3-1.8,0.4c-0.4,0.1-0.6,0.1-0.6,0.1c0,0,0.2-0.1,0.6-0.2c0.4-0.1,1.1-0.3,1.8-0.5
		c0.7-0.2,1.8-0.5,2.9-0.7s2.5-0.5,3.9-0.7c1.4-0.2,3.3-0.4,5-0.5c1.7-0.1,3.9-0.1,5.8,0c2,0.1,4.4,0.4,6.6,0.7c2.2,0.3,5,1,7.3,1.7
		c2.3,0.7,5,1.7,7.4,2.8c2.4,1,5.3,2.7,7.6,4.1c2.3,1.5,5.1,3.6,7.3,5.5c2.2,1.9,4.9,4.7,6.8,7s4,5.5,5.6,8.1
		c1.5,2.7,3.1,6.2,4.3,9.2c1.2,2.9,2.2,7.1,2.8,10.2c0.6,3.1,1,7.5,1,10.7c0,3.2-0.3,7.3-0.9,10.4c-0.5,3.1-1.6,7.1-2.6,10.1
		c-1,3-2.8,7-4.4,9.7s-3.8,6-5.6,8.4c-1.8,2.4-4.6,5.2-6.7,7.2c-2.1,2-5.4,4.5-7.7,6c-2.3,1.5-5.5,3.4-7.9,4.4
		c-2.4,1.1-5.3,2.2-7.6,3c-2.3,0.8-5.6,1.5-7.7,1.9c-2.1,0.4-5,0.7-6.9,0.9c-1.9,0.2-4.5,0.2-6.2,0.2c-1.7,0-4-0.2-5.4-0.4
		c-1.4-0.1-3-0.4-4.1-0.6c-1.1-0.2-2.4-0.5-3.1-0.6c-0.7-0.1-1.7-0.4-2-0.5c-0.4-0.1-0.5-0.1-0.5-0.1c0,0,0.3,0.1,0.7,0.3
		c0.4,0.2,1.5,0.5,2.4,0.7c0.8,0.2,2.3,0.6,3.6,0.8c1.2,0.2,3.5,0.6,5.1,0.8s4.2,0.4,6.2,0.4c1.9,0,4.9-0.1,7.1-0.4
		c2.2-0.2,5.8-0.8,8.2-1.4c2.4-0.6,5.7-1.7,8.3-2.6c2.6-1,6.7-2.9,9.2-4.5c2.5-1.5,6.1-4,8.5-6s5.9-5.4,8-8c2.1-2.5,4.7-6.4,6.5-9.3
		c1.7-2.9,3.8-7.7,5-11.1c1.1-3.3,2.4-8.5,2.9-12c0.5-3.5,0.7-8.9,0.5-12.5c-0.2-3.6-1-8.9-2-12.4c-0.9-3.5-2.7-8.5-4.3-11.7
		c-1.6-3.2-4.3-7.7-6.5-10.6c-2.2-2.9-5.6-6.7-8.3-9c-2.6-2.3-6.7-5.4-9.6-7.2c-2.9-1.7-7.1-3.7-10.1-5c-3-1.2-7.8-2.6-10.8-3.1
		c-3.1-0.6-7.3-1.1-10.2-1.1c-2.9-0.1-7,0.1-9.7,0.5s-6.4,1.1-8.8,1.7s-5.7,1.8-7.8,2.7c-2,0.9-4.6,2.1-6.3,3
		c-1.7,0.9-3.8,2.3-5.1,3.2c-1.3,0.9-3.1,2.2-4,3c-0.9,0.8-2,1.7-2.7,2.3c-0.6,0.6-1.1,1-1.4,1.3c-0.3,0.3-0.7,0.7-0.7,0.7l3.1-2.9
		l3-2.4l3.1-2.3l3.6-2.3l3.4-1.8l3.5-1.6l3.6-1.4l4.1-1.3l3.8-0.9l3.8-0.7l4.3-0.5l3.9-0.2l3.9,0l4.3,0.3l3.9,0.5l3.8,0.8l3.8,1
		l3.7,1.2l4,1.6l3.5,1.7l3.4,1.9l3.7,2.4l3.1,2.3l3,2.5l2.8,2.7l2.9,3.2l2.5,3l2.3,3.2l2.3,3.7l1.8,3.5l1.6,3.6l1.6,4.1l1.2,3.8
		l0.9,3.8l0.7,3.9l0.5,4.4l0.2,3.9l0,3.9l-0.3,4.4l-0.6,3.9l-0.8,3.9l-1,3.8l-1.4,4.2l-1.5,3.7l-1.7,3.6l-1.9,3.5l-2.4,3.7l-2.4,3.2
		l-2.6,3l-3.1,3.2l-2.9,2.6l-3.1,2.5l-3.2,2.3l-3.8,2.3l-3.5,1.8l-3.6,1.6l-4.1,1.6l-3.8,1.2l-3.9,0.9l-4.4,0.8l-4,0.4l-4,0.2
		l-4-0.1l-4.5-0.4c0,0,11.3,1.5,15.4,1.1c2.8-0.3,7.5-1.2,10.7-2.1c3.3-0.9,9.1-3.1,12.5-5c3.4-1.9,8.6-5.2,11.9-8
		c3.3-2.7,8.2-8,11-11.7c2.8-3.7,6.9-11.2,8.7-16.3c1.8-5.2,3.8-14.1,3.9-20.1c0.2-6-0.9-15.9-2.8-21.8c-1.9-5.9-6.2-14.8-9.9-19.7
		c-3.7-4.9-10.7-12-15.8-15.4c-5.1-3.4-13.3-7.3-18.4-8.8c-5.1-1.5-12.7-2.6-16.6-2.7c-3.9-0.1-8.4,0.2-8.8,0.3
		c-0.3,0-2.3,0.2-4.6,0.6c-2.2,0.3-6.6,1.3-9.7,2.3s-8.3,3.2-11.8,5c-3.4,1.8-8.9,5.6-12,8.3c-3.1,2.7-7.4,7.4-10,10.7
		c-2.6,3.4-6.1,9.6-7.8,13.5c-1.7,3.9-3.8,10.8-4.5,14.8c-0.7,4-1.2,10.3-1.1,14c0.1,3.7,0.8,9.6,1.6,13c0.8,3.4,2.5,8.9,3.8,11.9
		c1.3,2.9,3.6,7.3,5.1,9.7s4.3,6.1,5.8,8s4,4.4,5.4,5.7c5.7,4,4.3,2.3,9.5,4.3c7.6,3,17.6-0.2,19.3-3.6c1.7-3.3-0.5-12.4-9.7-21.5
		c-1.4-1.3-2-1.7-3.6-3.5c-1.6-1.8-2-2.2-3.6-4.5c-1.6-2.4-2.1-3.2-3.5-6.1c-1.4-2.9-1.6-3.5-2.5-7c-0.9-3.4-1-4.3-1.3-8.1
		c-0.3-3.8-0.4-4.5,0.4-8.8c0.8-4.3,0.8-5.5,2.7-9.9s2.5-5.7,5.5-9.6s4.2-5,7.9-8c3.7-2.9,4.7-3.6,9.1-5.4s5.7-2.4,9.7-3
		c4-0.6,5.4-0.9,8.3-0.7c2.9,0.1,4,0.2,4.2,0.2c0.2,0,1.1,0,3.2,0.4c2.2,0.4,3.5,0.5,6.8,1.5c3.3,1.1,5,1.7,8.8,3.8
		c3.7,2.1,5.6,3.5,9.1,6.8c3.5,3.3,5.2,5.3,7.8,9.8c2.6,4.5,4,7.4,5.3,12.7c1.2,5.2,1.8,8.8,1.5,14.2c-0.3,5.4-1.1,9.3-2.7,14.1
		c-1.6,4.9-3.4,8.3-6.2,12.4c-2.8,4-5.6,7.1-9.1,10.1c-3.5,3-6.8,5.1-10.6,7.1c0.2,0,0.6-0.1,1-0.2c0.4-0.1,0.8-0.3,1.4-0.5
		c0.6-0.2,1.2-0.5,1.9-0.8c0.7-0.4,1.4-0.7,2.2-1.2c0.8-0.5,1.6-1,2.5-1.6c0.9-0.6,1.8-1.2,2.8-2c1-0.7,1.9-1.5,2.9-2.4
		c1-0.9,1.9-1.8,2.9-2.8c1-1,1.9-2.1,2.9-3.3c0.9-1.2,1.8-2.4,2.8-3.8c0.9-1.3,1.6-2.7,2.5-4.2s1.5-2.9,2.1-4.6
		c0.7-1.6,1.2-3.1,1.7-4.9c0.5-1.7,0.9-3.3,1.3-5.1c0.4-1.8,0.6-3.4,0.8-5.3c0.2-1.9,0.2-3.5,0.2-5.4c0-1.9-0.2-3.5-0.4-5.4
		c-0.2-1.9-0.5-3.5-0.9-5.4c-0.4-1.9-0.9-3.4-1.5-5.2c-0.6-1.8-1.1-3-1.9-4.7c-0.8-1.7-1.4-3-2.4-4.6c-0.9-1.6-1.7-2.8-2.7-4.2
		c-1.1-1.4-1.8-2.5-3-3.7c-1.1-1.3-1.9-2.2-3.2-3.3s-2.2-2-3.4-3c-1.2-1-2-1.5-3.2-2.3s-1.9-1.3-3.1-1.9c-1.2-0.6-2.1-1.1-3.2-1.6
		s-1.9-0.9-2.9-1.3c-1-0.4-1.7-0.7-2.6-1c-0.9-0.3-1.4-0.5-2.2-0.7C-131.9,584.5-132.3,584.3-132.9,584.2L-132.9,584.2"/>
</g>
<text transform="matrix(1 0 0 1 -263.47 293.1903)" class="st1 st2 st3">Alexandra Harkai</text>
</svg>
